# xmcd
# Copyright (C) 1995-1998 Ti Kan
#
# Track frame offsets:
#       150
#       13395
#       28615
#       42400
#       55232
#       68533
#       79281
#       92510
#       104514
#       119828
#       132829
#       149149
#       163901
#       176674
#
# Disc length: 2519 seconds
#
# Revision: 0
# Processed by: cddbd v1.5.2PL0 Copyright (c) Steve Scherf et al.
# Submitted via: CD-Transfer v1.0
#
DISCID=d009d50e
DTITLE=Alpenland/Oesch's Die Dritten - 
DYEAR=2008
DGENRE=
TTITLE0=Die Jodelsprache
TTITLE1=Wo Der Wildbach Rauscht
TTITLE2=Wir Sind Eine Jodelfamilie
TTITLE3=Polkaspass
TTITLE4=Gesundheitsoase Berner Oberland
TTITLE5=Solojodler
TTITLE6=Lolita
TTITLE7=Mike-Fox
TTITLE8=Zauber Der Volksmusik
TTITLE9=Jodeln, Das Bin Ich
TTITLE10=Hopp Schwiiz
TTITLE11=Mi Vatter Isch En Appezeller
TTITLE12=Die Zeit
TTITLE13=Ein Wiederseh'n
EXTD=
EXTT0=
EXTT1=
EXTT2=
EXTT3=
EXTT4=
EXTT5=
EXTT6=
EXTT7=
EXTT8=
EXTT9=
EXTT10=
EXTT11=
EXTT12=
EXTT13=
PLAYORDER=
